<?xml version="1.0" standalone="no"?>
<!DOCTYPE svg PUBLIC "-//W3C//DTD SVG 20010904//EN"
 "http://www.w3.org/TR/2001/REC-SVG-20010904/DTD/svg10.dtd">
<svg version="1.0" xmlns="http://www.w3.org/2000/svg"
 width="500.000000pt" height="500.000000pt" viewBox="0 0 500.000000 500.000000"
 preserveAspectRatio="xMidYMid meet">

<g transform="translate(0.000000,500.000000) scale(0.100000,-0.100000)"
fill="#000000" stroke="none">
<path d="M3823 4104 c-13 -3 -23 -9 -23 -14 0 -5 -17 -12 -37 -16 -57 -10 -68
-18 -48 -34 11 -9 54 -15 133 -17 139 -5 162 -9 162 -28 0 -33 -219 -226 -361
-318 -31 -20 -86 -46 -123 -58 -61 -20 -69 -21 -83 -6 -14 14 -12 22 21 90 48
99 53 126 28 157 -18 22 -28 25 -77 23 -62 -2 -193 -31 -201 -44 -9 -16 -24
-9 -24 10 0 11 -4 23 -10 26 -5 3 -10 17 -10 31 0 51 -64 131 -125 155 -40 15
-281 15 -300 -1 -8 -7 -18 -9 -22 -7 -18 11 -351 -71 -378 -93 -6 -5 -14 -8
-16 -5 -7 6 -164 -50 -194 -69 -13 -9 -30 -16 -38 -16 -7 0 -17 -4 -23 -9 -5
-5 -43 -26 -84 -47 -85 -42 -230 -128 -306 -182 -29 -21 -91 -64 -138 -96
-124 -85 -280 -221 -453 -396 -30 -30 -118 -128 -200 -223 -18 -21 -23 -36
-19 -53 11 -44 35 -41 85 11 39 40 46 53 43 78 -4 28 11 45 187 219 106 103
197 188 202 188 5 0 43 26 84 58 188 145 229 174 311 220 170 95 309 163 391
192 45 16 97 35 115 43 31 14 107 41 188 65 172 52 542 78 586 41 16 -13 19
-86 4 -124 -11 -30 -79 -95 -98 -95 -7 0 -12 -7 -10 -16 2 -10 -12 -24 -37
-37 -22 -12 -58 -34 -79 -49 -22 -15 -43 -25 -48 -22 -4 3 -8 1 -8 -4 0 -5
-25 -22 -55 -37 -40 -21 -58 -25 -67 -17 -19 15 -126 -51 -447 -280 -107 -77
-152 -116 -293 -255 -190 -187 -232 -263 -163 -295 14 -6 25 -15 25 -19 0 -5
9 -13 20 -19 30 -16 77 2 193 74 53 34 105 66 115 71 108 64 352 241 423 308
11 9 23 17 27 17 5 0 18 10 30 23 11 12 32 31 47 42 14 11 38 31 53 45 15 14
67 61 116 105 48 44 119 116 158 160 139 160 170 184 303 235 33 13 65 27 70
30 24 18 74 20 108 6 33 -13 35 -17 28 -43 -15 -49 -23 -63 -35 -63 -15 0 -56
-42 -56 -58 0 -18 -21 -26 -31 -11 -10 17 -15 12 -22 -28 -5 -27 -1 -39 23
-66 42 -48 92 -62 171 -48 34 6 85 23 113 37 197 103 446 314 476 403 12 36
11 42 -9 75 -37 58 -80 78 -179 82 -48 1 -97 0 -109 -2z m218 -151 c-25 -46
-256 -243 -283 -243 -7 1 -2 10 12 21 14 11 43 35 64 52 87 71 185 160 190
173 3 8 10 14 16 14 7 0 8 -6 1 -17z m-921 -72 c0 -5 -7 -14 -15 -21 -16 -14
-18 -10 -9 14 6 17 24 22 24 7z m620 -186 c0 -7 -78 -55 -90 -55 -5 0 -10 5
-10 10 0 6 6 10 14 10 8 0 24 9 37 20 22 18 49 26 49 15z m-130 -75 c-8 -5
-19 -10 -25 -10 -5 0 -3 5 5 10 8 5 20 10 25 10 6 0 3 -5 -5 -10z m-680 -28
c0 -17 -257 -254 -400 -368 -169 -135 -358 -266 -466 -324 -32 -18 -63 -36
-69 -41 -13 -13 -25 -11 -25 4 0 7 16 21 35 31 19 11 33 21 31 23 -2 3 -14 -1
-26 -7 -11 -6 -29 -10 -38 -8 -56 11 365 359 663 548 169 107 185 115 185 95
0 -23 13 -18 56 20 39 34 54 42 54 27z m-282 -44 c-2 -6 -13 -16 -24 -22 -10
-6 -33 -21 -51 -33 -17 -13 -36 -23 -41 -23 -5 0 -20 -10 -33 -22 -14 -13 -63
-49 -109 -80 -167 -113 -276 -204 -432 -359 -155 -155 -198 -189 -116 -93 103
121 130 146 403 372 101 84 316 232 337 232 4 0 17 9 28 20 22 22 44 27 38 8z"/>
<path d="M2664 2490 c-18 -4 -48 -17 -67 -29 -29 -18 -39 -20 -63 -10 -66 25
-187 9 -247 -34 -25 -17 -33 -18 -73 -7 -80 23 -206 -5 -267 -58 -12 -11 -41
-16 -105 -16 -94 -1 -144 -19 -190 -69 -21 -22 -29 -24 -87 -20 -79 7 -159
-17 -213 -62 -31 -27 -41 -31 -57 -22 -11 6 -53 11 -95 11 -80 0 -152 -24
-197 -66 -19 -18 -25 -19 -58 -8 -64 21 -158 15 -222 -15 -32 -14 -66 -34 -76
-43 -34 -31 -57 -89 -57 -145 l0 -54 -60 -16 c-33 -10 -60 -23 -61 -30 -2 -47
2 -209 7 -243 5 -36 3 -41 -20 -52 -25 -11 -26 -14 -26 -107 l0 -95 38 -24
c51 -32 224 -118 336 -168 50 -22 327 -128 616 -235 l525 -195 55 12 c246 55
1638 451 2220 632 270 83 313 101 331 135 18 33 18 146 1 278 -7 55 -16 129
-20 165 l-7 64 -48 14 c-41 11 -46 16 -42 35 3 12 -1 31 -8 42 -13 17 -28 19
-143 21 -151 2 -221 12 -407 60 -146 37 -701 199 -802 234 -41 14 -72 19 -97
15 -35 -6 -41 -3 -85 42 -63 65 -137 85 -229 63z m151 -104 c15 -10 25 -19 23
-21 -1 -2 -38 -10 -81 -18 l-77 -15 -21 29 -20 29 23 10 c34 14 122 6 153 -14z
m-317 -14 c9 -6 10 -16 1 -40 -11 -32 -18 -36 -83 -48 -34 -6 -41 -4 -62 22
-13 16 -23 33 -24 37 -1 25 136 49 168 29z m-303 -79 c-8 -45 -22 -58 -75 -67
-37 -6 -43 -3 -71 28 -16 19 -31 39 -32 43 -3 14 66 32 127 32 l58 1 -7 -37z
m395 33 c0 -3 -4 -8 -10 -11 -5 -3 -10 -1 -10 4 0 6 5 11 10 11 6 0 10 -2 10
-4z m-311 -67 c-16 -10 -23 -4 -14 10 3 6 11 8 17 5 6 -4 5 -9 -3 -15z m913
-19 c95 -23 319 -79 498 -125 179 -46 376 -94 438 -106 l112 -22 -51 -35 c-65
-43 -253 -134 -337 -162 -35 -11 -149 -40 -255 -65 -106 -24 -318 -73 -472
-108 -154 -36 -341 -77 -416 -91 -151 -29 -361 -84 -579 -153 -143 -45 -146
-46 -250 -40 -204 11 -373 58 -644 182 -102 46 -283 122 -403 170 -120 49
-221 91 -225 94 -4 4 97 35 225 69 216 57 233 60 245 44 37 -51 43 -55 58 -40
12 11 13 21 4 43 -6 15 -9 29 -8 30 9 8 251 64 258 60 5 -3 11 -22 15 -43 8
-51 19 -66 40 -58 15 5 17 15 12 65 l-6 58 149 30 150 30 14 -46 c19 -65 42
-62 38 4 l-2 51 113 22 c62 12 118 22 124 22 5 0 18 -18 28 -40 14 -31 23 -40
39 -38 18 3 21 9 18 48 l-3 46 107 17 c58 10 108 17 110 15 2 -2 7 -22 12 -44
6 -29 13 -39 27 -39 17 0 20 8 23 51 l3 51 117 18 c64 10 121 18 126 19 5 0
14 -14 19 -32 8 -25 15 -32 31 -30 16 2 22 11 24 39 l3 36 69 12 c94 15 99 15
106 -14 14 -55 54 -51 59 6 2 19 4 35 4 37 3 10 86 -4 233 -38z m-1314 -27
c-3 -37 -4 -37 -60 -49 -56 -11 -58 -10 -83 16 -21 22 -23 29 -12 38 24 20 61
31 110 31 l48 1 -3 -37z m92 -17 c-24 -11 -33 -5 -24 17 5 13 9 14 25 4 19
-12 19 -12 -1 -21z m-381 -48 c-5 -18 -9 -33 -9 -34 0 0 -36 -9 -80 -19 -80
-18 -81 -18 -101 2 l-21 20 29 20 c41 29 81 41 140 42 l52 1 -10 -32z m92 -11
c-13 -13 -26 -3 -16 12 3 6 11 8 17 5 6 -4 6 -10 -1 -17z m-407 -45 c3 -4 -1
-19 -7 -32 -9 -17 -32 -29 -92 -47 l-80 -24 -22 28 c-13 15 -23 31 -23 34 0 4
21 16 48 27 48 22 165 31 176 14z m-367 -78 c19 -5 22 -11 17 -33 -4 -14 -12
-31 -18 -38 -14 -14 -236 -77 -244 -68 -10 10 30 76 60 98 44 33 138 53 185
41z m3553 -258 l0 -144 -32 -7 c-69 -15 -403 -117 -412 -125 -5 -5 -6 -13 -3
-17 10 -9 328 52 430 83 12 4 17 0 17 -15 0 -14 -12 -23 -47 -35 -368 -117
-2436 -717 -2444 -708 -3 4 -9 22 -13 41 -5 29 -4 32 12 26 39 -15 79 -17 93
-3 8 8 248 81 534 162 286 82 528 153 538 158 27 14 22 48 -7 48 -14 0 -255
-65 -535 -145 -281 -80 -515 -145 -521 -145 -6 0 -10 40 -10 103 l0 104 148
53 c81 29 197 75 257 102 131 60 341 138 445 167 41 12 266 65 500 117 430 97
504 118 640 182 60 27 371 137 403 141 4 1 7 -64 7 -143z m-3772 -82 c249
-104 377 -162 522 -234 139 -69 169 -81 545 -215 121 -43 226 -83 233 -88 18
-14 17 -197 -2 -197 -7 0 -91 18 -186 40 -95 22 -175 38 -178 36 -15 -16 20
-36 136 -80 l130 -49 7 -44 c3 -25 5 -46 3 -47 -4 -3 -856 293 -1003 349 -55
21 -169 70 -252 111 l-153 73 0 65 c0 51 3 66 15 66 8 0 163 -54 345 -120 182
-66 339 -120 350 -120 13 0 20 7 20 18 0 17 -142 87 -590 289 -52 23 -98 51
-102 60 -8 21 -10 153 -3 153 3 0 77 -30 163 -66z m1752 -331 c-51 -23 -298
-115 -380 -142 -29 -9 -43 -8 -85 9 l-50 19 41 1 c23 0 61 7 85 16 73 26 413
123 429 123 8 0 -10 -12 -40 -26z"/>
<path d="M2690 2095 c-122 -29 -344 -87 -395 -102 -14 -4 26 -29 150 -91 215
-108 503 -242 521 -242 10 0 545 153 688 197 15 4 16 7 5 13 -28 15 -800 260
-817 259 -9 0 -78 -16 -152 -34z m561 -127 c220 -55 398 -102 397 -103 -2 -2
-154 -26 -339 -55 l-336 -52 -199 70 c-109 38 -250 86 -312 107 -62 20 -111
40 -107 43 3 3 92 20 198 38 105 18 210 37 232 42 22 6 46 10 54 11 7 1 193
-45 412 -101z"/>
<path d="M3020 1319 c-239 -65 -452 -123 -472 -129 -28 -8 -38 -16 -38 -31 0
-11 7 -22 14 -25 8 -3 151 37 318 89 167 53 377 119 468 147 155 48 210 71
165 69 -11 0 -216 -54 -455 -120z"/>
</g>
</svg>
